<?xml version="1.0" encoding="UTF-8" standalone="no"?>
<!DOCTYPE svg PUBLIC "-//W3C//DTD SVG 1.1//EN" "http://www.w3.org/Graphics/SVG/1.1/DTD/svg11.dtd">
<svg version="1.1" xmlns="http://www.w3.org/2000/svg" xmlns:xlink="http://www.w3.org/1999/xlink" preserveAspectRatio="xMidYMid meet" viewBox="0 0 640 640" width="640" height="640"><defs><path d="M585.39 23.19C586.88 23.19 588.09 24.4 588.09 25.88C588.09 53.15 588.09 132.24 588.09 159.51C588.09 160.99 586.88 162.2 585.39 162.2C475.58 162.2 148.82 162.2 39 162.2C37.52 162.2 36.31 160.99 36.31 159.51C36.31 132.24 36.31 53.15 36.31 25.88C36.31 24.4 37.52 23.19 39 23.19C148.82 23.19 475.58 23.19 585.39 23.19Z" id="a92XoJ7cLh"></path><path d="M617.38 211.49C618.87 211.49 620.07 212.69 620.07 214.18C620.07 241.44 620.07 320.54 620.07 347.8C620.07 349.29 618.87 350.5 617.38 350.5C507.56 350.5 180.81 350.5 70.99 350.5C69.5 350.5 68.3 349.29 68.3 347.8C68.3 320.54 68.3 241.44 68.3 214.18C68.3 212.69 69.5 211.49 70.99 211.49C180.81 211.49 507.56 211.49 617.38 211.49Z" id="aBf8g60XR"></path><path d="M583.97 405.6C585.46 405.6 586.67 406.81 586.67 408.3C586.67 435.56 586.67 514.65 586.67 541.92C586.67 543.4 585.46 544.61 583.97 544.61C474.16 544.61 147.4 544.61 37.59 544.61C36.1 544.61 34.89 543.4 34.89 541.92C34.89 514.65 34.89 435.56 34.89 408.3C34.89 406.81 36.1 405.6 37.59 405.6C147.4 405.6 474.16 405.6 583.97 405.6Z" id="b7rqe4kMr"></path></defs><g><g><g><use xlink:href="#a92XoJ7cLh" opacity="1" fill="#33884d" fill-opacity="1"></use></g><g><use xlink:href="#aBf8g60XR" opacity="1" fill="#71ab85" fill-opacity="1"></use></g><g><use xlink:href="#b7rqe4kMr" opacity="1" fill="#33884d" fill-opacity="1"></use></g></g></g></svg>